<svg width="368" height="298" viewBox="0 0 368 298" fill="none" xmlns="http://www.w3.org/2000/svg">
<g clip-path="url(#clip0_6601_657)">
<path d="M181.823 26.0226V34.6035C112.732 34.6035 56.7255 90.6102 56.7184 159.705H48.1375C46.4057 159.705 44.9862 161.121 45.0288 162.853C46.6789 235.904 105.613 294.842 178.679 296.496C180.411 296.531 181.827 295.115 181.827 293.387V284.803C250.918 284.803 306.925 228.792 306.925 159.705H315.502C317.234 159.705 318.653 158.285 318.611 156.554C316.961 83.5021 258.044 24.5605 184.978 22.9103C183.246 22.8748 181.827 24.2943 181.827 26.0226" fill="#FF788F"/>
<path d="M181.823 26.0226V34.6035C112.732 34.6035 56.7255 90.6102 56.7184 159.705H48.1375C46.4057 159.705 44.9862 161.121 45.0288 162.853C46.6789 235.904 105.613 294.842 178.679 296.496C180.411 296.531 181.827 295.115 181.827 293.387V284.803C250.918 284.803 306.925 228.792 306.925 159.705H315.502C317.234 159.705 318.653 158.285 318.611 156.554C316.961 83.5021 258.044 24.5605 184.978 22.9103C183.246 22.8748 181.827 24.2943 181.827 26.0226" stroke="white" stroke-width="2" stroke-linecap="round" stroke-linejoin="round"/>
<mask id="mask0_6601_657" style="mask-type:alpha" maskUnits="userSpaceOnUse" x="27" y="-13" width="311" height="310">
<path d="M178.342 -8.21597L141.751 1.75253C72.6597 1.75253 51.8852 39.8628 51.8816 108.954L48.1377 159.705C46.4059 159.705 27.4483 170.167 27.4874 171.902C28.009 195.004 34.6559 215.708 49.9546 232.206C54.2345 236.823 68.6993 236.933 72.3226 241.76C96.6991 274.234 135.186 295.516 178.676 296.499C180.408 296.535 181.823 295.119 181.823 293.391V284.806C215.838 284.806 246.684 271.229 269.237 249.198C269.979 248.474 306.368 250.788 307.088 250.046C329.051 227.504 333.104 219.828 333.104 185.873L336.82 167.044C338.551 167.044 328.189 144.74 328.146 143.011C326.496 69.9599 307.251 3.40626 234.186 1.75608C232.454 1.72059 189.251 -14.0963 189.251 -12.368" fill="white"/>
</mask>
<g mask="url(#mask0_6601_657)">
<path d="M218.685 41.0731C218.802 38.557 219.572 27.9036 228.259 19.5001C234.427 13.5346 241.393 11.7886 244.364 11.2244C244.527 13.492 245.009 23.5918 237.713 32.4993C231.84 39.6749 224.341 41.9 221.737 42.5458C220.718 42.0525 219.7 41.5628 218.681 41.0695L218.685 41.0731Z" fill="#FF788F" stroke="black" stroke-width="1.2" stroke-linecap="round" stroke-linejoin="round"/>
<path d="M220.172 42.0385C222.312 37.5103 225.363 32.18 229.739 26.7398C231.868 24.0924 234.015 21.7857 236.07 19.7948C241.063 17.3355 228.653 34.1035 228.501 43.7703C225.725 43.1919 222.95 42.617 220.172 42.0385Z" fill="black"/>
<path d="M142.94 32.2082L141.825 26.6473C144.927 8.27178 161.975 2.33468 177.135 1.62493C199.17 0.592233 212.506 10.7772 220.168 28.1165C209.912 31.0584 199.656 33.9968 189.396 36.9388L142.932 32.2118L142.94 32.2082Z" fill="#FF788F" stroke="black" stroke-width="1.2" stroke-linecap="round" stroke-linejoin="round"/>
<path d="M215.675 19.7984C205.795 17.1191 160.488 12.6548 141.825 26.6476H164.136L196.352 34.9446C204.291 32.6698 212.233 30.3915 220.171 28.1168C218.848 25.1216 217.354 22.3465 215.675 19.802V19.7984Z" fill="black"/>
<path d="M175.294 125.924C179.215 123.525 183.534 120.558 187.998 116.903C193.357 112.517 197.729 108.12 201.232 104.153C186.678 101.58 172.125 99.0068 157.568 96.4375L175.294 125.928V125.924Z" fill="black"/>
<path d="M240.516 84.3185C244.129 83.9991 251.188 83.9317 258.331 87.8354C274.375 96.6008 275.17 116.818 275.199 117.982" stroke="black" stroke-width="1.2" stroke-linecap="round" stroke-linejoin="round"/>
<path d="M199.173 98.4567C199.848 129.469 223.01 127.947 212.35 149.353C216.087 156.234 219.824 163.119 223.561 170C223.376 167.562 228.397 175.039 228.213 172.598C227.155 171.409 234.203 174.876 234.104 173.705C232.489 155.123 244.15 137.234 242.802 113.802C242.206 103.428 235.612 96.991 233.511 94.8156C235.971 93.7084 244.832 90.3867 245.9 82.4269C247.919 67.3446 223.56 71.3866 228.806 51.187H215.065L199.177 98.4496L199.173 98.4567Z" fill="black"/>
<path d="M207.524 87.8958C207.58 95.2098 209.561 100.121 211.427 103.305C217.606 113.827 228.834 116.148 230.534 125.009C231.822 131.723 226.467 140.112 232.557 149.942" stroke="#FF788F" stroke-width="1.2" stroke-linecap="round" stroke-linejoin="round"/>
<path d="M219.057 156.731C222.595 148.42 223.688 135.889 217.145 131.187" stroke="#FF788F" stroke-width="1.2" stroke-linecap="round" stroke-linejoin="round"/>
<path d="M237.685 74.8928C242.369 78.8142 244.122 84.7762 242.206 89.5138C240.648 93.3677 237.177 95.1244 236.07 95.6318" fill="black"/>
<path d="M237.685 74.8928C242.369 78.8142 244.122 84.7762 242.206 89.5138C240.648 93.3677 237.177 95.1244 236.07 95.6318" stroke="#FF788F" stroke-width="1.2" stroke-linecap="round" stroke-linejoin="round"/>
<path d="M140.736 55.5696C138.234 64.2534 117.037 78.193 115.153 94.5493C120.405 116.715 125.657 138.877 130.906 161.043L175.29 131.868C180.457 119.593 163.221 107.63 164.296 101.416C155.95 85.908 149.079 71.0742 140.732 55.5696H140.736Z" fill="black" stroke="#FF788F" stroke-width="1.2" stroke-linecap="round" stroke-linejoin="round"/>
<path d="M136.566 111.147C136.86 112.659 137.297 114.22 137.897 115.828C142.216 127.404 156.489 127.94 159.991 135.211" stroke="#FF788F" stroke-width="1.2" stroke-linecap="round" stroke-linejoin="round"/>
<path d="M138.582 94.8159C137.095 98.0559 135.949 102.102 136.08 106.775" stroke="#FF788F" stroke-width="1.2" stroke-linecap="round" stroke-linejoin="round"/>
<path d="M154.065 87.8958C148.128 97.6087 148.423 103.773 149.714 107.563C153.103 117.493 166.528 120.491 166.858 130.123C166.947 132.656 166.095 134.718 165.506 135.886" stroke="#FF788F" stroke-width="1.2" stroke-linecap="round" stroke-linejoin="round"/>
<path d="M142.939 56.5742C147.042 91.4764 167.724 114.813 185.553 112.961C197.782 111.69 206.03 98.5988 208.837 93.6305C212.35 86.9695 215.867 80.3049 219.38 73.6438L222.677 43.7703L142.943 56.5742H142.939Z" fill="#FF788F"/>
<path d="M185.553 112.96C188.949 112.605 192.037 111.342 194.787 109.593C169.548 120.008 152.734 80.6878 149.203 55.5696L142.939 56.5739C147.042 91.4761 167.724 114.813 185.553 112.96Z" fill="white"/>
<path d="M142.939 56.5742C147.042 91.4764 167.724 114.813 185.553 112.961C197.782 111.69 206.03 98.5988 208.837 93.6305C212.35 86.9695 215.867 80.3049 219.38 73.6438L222.677 43.7703L142.943 56.5742H142.939Z" stroke="black" stroke-width="1.2" stroke-linecap="round" stroke-linejoin="round"/>
<path d="M139.345 49.1465C139.217 53.3802 139.22 57.88 139.405 62.6212C139.611 67.8343 140.015 72.7529 140.551 77.3486C140.65 78.1896 141.704 78.4984 142.244 77.8419C144.228 75.4251 146.499 72.902 149.089 70.3504C151.08 68.3879 153.046 66.6277 154.941 65.045C154.87 66.4467 154.707 68.0118 154.398 69.6974C154.111 71.2624 153.742 72.6961 153.334 73.9879C153.082 74.7935 153.934 75.5068 154.686 75.1199C158.096 73.3562 161.73 71.2624 165.481 68.7676C172.586 64.0478 178.314 59.0972 182.803 54.6435C168.317 52.8124 153.831 50.9777 139.341 49.1465H139.345Z" fill="black"/>
<path d="M139.345 49.1465C139.217 53.3802 139.22 57.88 139.405 62.6212C139.611 67.8343 140.015 72.7529 140.551 77.3486C140.65 78.1896 141.704 78.4984 142.244 77.8419C144.228 75.4251 146.499 72.902 149.089 70.3504C151.08 68.3879 153.046 66.6277 154.941 65.045C154.544 66.7697 154.143 68.4944 153.745 70.2191" stroke="#FF788F" stroke-width="1.2" stroke-linecap="round" stroke-linejoin="round"/>
<path d="M60.4766 182.467L52.7013 178.929C39.255 198.152 45.1069 223.814 57.7334 230.886C83.0788 245.078 105.358 223.217 123.68 187.165C126.775 177.768 129.873 170.44 132.967 161.046L60.4802 182.47L60.4766 182.467Z" fill="#FF788F"/>
<path d="M125.834 169.248C121.395 180.476 100.631 233.31 71.5559 235.198C91.2303 236.444 108.765 216.503 123.677 187.162C125.685 181.058 127.697 175.827 129.706 170.337C128.414 169.975 127.123 169.61 125.834 169.248Z" fill="white"/>
<path d="M109.283 82.8994L63.9078 98.6119C61.1297 99.5739 59.6575 102.606 60.6195 105.384L86.3266 179.622C87.2886 182.4 90.3205 183.872 93.0986 182.91L138.474 167.197C141.252 166.235 142.724 163.204 141.762 160.425L116.055 86.1877C115.093 83.4097 112.061 81.9374 109.283 82.8994Z" fill="white" stroke="white" stroke-width="1.2" stroke-linecap="round" stroke-linejoin="round"/>
<path d="M109.276 145.712L87.3128 153.318L84.7542 145.933L93.7751 108.273L104.531 104.55L115.029 134.871L121.963 132.472L124.699 140.375L117.765 142.774L121.353 153.14L112.864 156.078L109.276 145.712V145.712ZM106.54 137.809L99.6767 117.982L93.7751 142.228L106.54 137.809Z" fill="black"/>
<path d="M55.6361 173.45C49.3193 182.421 39.0349 207.206 57.6021 222.181C63.6847 227.086 79.388 226.369 84.3492 221.638C86.8653 212.774 109.308 197.23 105.986 192.535C103.956 189.668 96.2979 192.719 80.8821 199.423L68.2804 178.929C84.7502 162.86 99.4137 156.919 96.8196 151.944C94.5768 147.643 67.8581 156.082 55.629 173.45H55.6361Z" fill="#FF788F"/>
<path d="M55.6361 173.45C49.3193 182.421 39.0349 207.206 57.6021 222.181C63.6847 227.086 79.388 226.369 84.3492 221.638C86.8653 212.774 109.308 197.23 105.986 192.535C103.956 189.668 96.2979 192.719 80.8821 199.423L68.2804 178.929C84.7502 162.86 99.4137 156.919 96.8196 151.944C94.5768 147.643 67.8581 156.082 55.629 173.45H55.6361Z" fill="#FF788F"/>
<path d="M67.0986 177.917C93.7748 157.995 110.127 162.211 110.12 166.316C110.106 172.406 99.1334 174.844 73.1528 188.581" fill="#FF788F"/>
<path d="M73.1531 188.585C102.988 172.154 115.195 175.703 115.199 180.37C115.202 185.324 102.228 188.585 80.8255 200.583" fill="#FF788F"/>
<path d="M71.0306 175.103C71.0306 175.103 78.444 170.469 78.4476 170.469C94.4809 155.163 99.3605 156.813 96.8231 151.944C96.5179 151.358 96.6989 151.557 95.5881 151.365C91.4964 152.785 78.1069 169.251 71.0271 175.107L71.0306 175.103Z" fill="white"/>
<path d="M74.9556 187.605C74.9911 187.598 75.0301 187.588 75.0656 187.58C99.6692 174.727 110.106 172.257 110.12 166.316C102.498 164.971 81.0807 181.736 74.9556 187.602V187.605Z" fill="white"/>
<path d="M115.202 180.37C115.202 179.937 115.096 179.514 114.879 179.117C111.32 177.921 89.8251 192.084 81.741 200.076C81.741 200.076 81.7445 200.076 81.7481 200.076C102.597 188.5 115.206 185.256 115.202 180.373V180.37Z" fill="white"/>
<path d="M105.588 192.105C105.588 192.105 105.56 192.076 105.542 192.062C105.464 192.002 105.383 191.949 105.294 191.896C105.283 191.892 105.276 191.885 105.269 191.878C105.173 191.825 105.074 191.775 104.967 191.729C104.644 191.594 104.268 191.512 103.842 191.473C103.7 191.463 103.551 191.455 103.395 191.452C104.531 195.384 99.8926 202.645 94.1365 208.788C100.577 202.205 107.515 195.757 106.153 192.811C106.099 192.715 106.053 192.616 105.993 192.531C105.929 192.442 105.862 192.357 105.787 192.279C105.727 192.215 105.659 192.158 105.592 192.105H105.588Z" fill="white"/>
<path d="M92.5466 210.427L92.5396 210.434C92.5326 210.441 92.5256 210.448 92.5186 210.455C92.5291 210.445 92.5396 210.434 92.5466 210.424V210.427Z" fill="white"/>
<path d="M52.6267 178.485C39.1804 197.709 45.1034 223.814 57.7299 230.887C83.0752 245.078 105.354 223.218 123.677 187.166" stroke="black" stroke-width="1.2" stroke-linecap="round" stroke-linejoin="round"/>
<path d="M67.0986 177.917C93.7748 157.995 110.127 162.211 110.12 166.316C110.106 172.406 99.1334 174.844 73.1528 188.581" stroke="black" stroke-width="1.2" stroke-linecap="round" stroke-linejoin="round"/>
<path d="M73.1531 188.585C102.988 172.154 115.195 175.703 115.199 180.37C115.202 185.324 102.228 188.585 80.8255 200.583" stroke="black" stroke-width="1.2" stroke-linecap="round" stroke-linejoin="round"/>
<path d="M58.6169 175.522C58.9008 179.195 59.7703 184.773 62.5454 190.977C65.1964 196.903 68.5712 201.133 71.0341 203.773" stroke="black" stroke-width="1.2" stroke-linecap="round" stroke-linejoin="round"/>
<path d="M76.6804 171.373C89.3566 160.809 98.9667 156.046 96.8232 151.94C94.5804 147.639 67.8617 156.078 55.6326 173.446C49.3158 182.417 38.6802 207.649 57.5987 222.178C64.7104 227.639 76.1978 227.068 82.3513 223.193C83.4834 222.479 84.328 221.404 84.8958 220.19C89.1366 211.173 109.13 196.978 105.983 192.531C104.485 190.413 99.9178 191.523 91.4291 194.944" stroke="black" stroke-width="1.2" stroke-linecap="round" stroke-linejoin="round"/>
<path d="M303.092 215.279L297.879 203.522L310.786 189.014L313.288 194.618L311.286 213.877L303.092 215.279Z" fill="black"/>
<path d="M317.301 184.167L308.184 194.717C309.718 204.994 310.615 224.197 299.596 204.547C286.973 215.364 281.856 226.706 269.233 237.523C278.204 245.727 302.904 243.147 313.88 230.698C323.742 219.513 321.904 194.717 317.305 184.167H317.301Z" fill="#FF788F"/>
<path d="M327.796 163.896L291.463 132.5C289.239 130.578 285.877 130.823 283.955 133.048L232.589 192.493C230.667 194.717 230.912 198.079 233.137 200.001L269.47 231.396C271.694 233.318 275.056 233.073 276.978 230.849L328.344 171.404C330.266 169.179 330.021 165.818 327.796 163.896Z" fill="white" stroke="#FF788F" stroke-width="1.2" stroke-linecap="round" stroke-linejoin="round"/>
<path d="M288.73 217.231L307.535 195.47L321.528 158.701L319.629 157.377L288.73 203.934V217.231Z" fill="#FF788F"/>
<path d="M320.619 150.896L279.902 125.443C277.409 123.885 274.125 124.642 272.566 127.135L230.923 193.753C229.364 196.246 230.122 199.53 232.615 201.089L273.332 226.542C275.825 228.1 279.11 227.342 280.668 224.849L322.311 158.232C323.87 155.739 323.112 152.455 320.619 150.896Z" fill="white" stroke="#FF788F" stroke-width="1.2" stroke-linecap="round" stroke-linejoin="round"/>
<path d="M290.182 131.868L232.557 200.328C233.146 201.162 233.905 201.896 234.828 202.471L271.121 225.159C271.7 225.521 285.938 212.599 286.555 212.798L311.286 145.063L290.182 131.868V131.868Z" fill="#FF788F"/>
<path d="M309.234 132.483L266.603 110.385C263.993 109.032 260.78 110.051 259.427 112.661L223.273 182.41C221.92 185.021 222.939 188.233 225.549 189.586L268.18 211.684C270.791 213.037 274.003 212.018 275.356 209.408L311.511 139.659C312.864 137.049 311.845 133.836 309.234 132.483Z" fill="white" stroke="white" stroke-width="1.2" stroke-linecap="round" stroke-linejoin="round"/>
<path d="M292.992 133.565L262.207 120.786L224.451 180.1C222.436 183.989 223.954 188.777 227.844 190.792L265.844 210.491C267.775 211.492 269.925 211.62 271.849 211.024C272.342 210.389 281.221 203.515 281.512 202.716L297.095 141.762C297.957 138.391 296.211 134.899 292.996 133.565H292.992Z" fill="#FF788F"/>
<path d="M292.516 131.847L247.399 115.408C244.637 114.402 241.582 115.825 240.576 118.587L213.68 192.403C212.673 195.165 214.097 198.22 216.859 199.226L261.976 215.665C264.738 216.672 267.793 215.249 268.8 212.486L295.695 138.671C296.702 135.909 295.279 132.854 292.516 131.847Z" fill="white"/>
<path d="M247.593 114.788L292.712 131.222C295.473 132.23 296.9 135.282 295.892 138.047L268.825 212.472C267.817 215.233 264.765 216.659 262.001 215.651L216.882 199.217C214.121 198.209 212.694 195.157 213.702 192.393" stroke="#FF788F" stroke-width="1.2" stroke-linecap="round" stroke-linejoin="round"/>
<path d="M252.912 180.561L231.073 172.605L233.749 165.262L264.502 141.73L275.195 145.627L264.211 175.777L271.103 178.29L268.239 186.15L261.348 183.638L257.593 193.944L249.154 190.87L252.909 180.565L252.912 180.561ZM255.776 172.701L262.955 152.987L243.082 168.077L255.772 172.701H255.776Z" fill="black"/>
<path d="M145.519 300.265C145.456 297.589 144.87 295.413 144.884 290.874C144.884 289.913 145.91 286.474 145.864 285.544C145.679 281.793 145.023 278.461 143.294 276.857C141.978 275.636 140.331 275.065 137.826 275.462C136.438 275.682 135.107 276.548 132.964 276.655C129.522 276.825 124.958 276.012 118.787 275.104C105.972 273.216 103.697 267.736 103.867 264.454C104.329 255.578 149.544 256.004 151.503 264.638C151.946 266.597 148.351 267.101 147.141 271.942C146.03 276.381 147.51 291.08 148.064 299.345" fill="white"/>
<path d="M145.519 300.265C145.456 297.589 144.87 295.413 144.884 290.874C144.884 289.913 145.91 286.474 145.864 285.544C145.679 281.793 145.023 278.461 143.294 276.857C141.978 275.636 140.331 275.065 137.826 275.462C136.438 275.682 135.107 276.548 132.964 276.655C129.522 276.825 124.958 276.012 118.787 275.104C105.972 273.216 103.697 267.736 103.867 264.454C104.329 255.578 149.544 256.004 151.503 264.638C151.946 266.597 148.351 267.101 147.141 271.942C146.03 276.381 147.51 291.08 148.064 299.345" stroke="white" stroke-width="1.2" stroke-linecap="round" stroke-linejoin="round"/>
<path d="M111.568 264.554C111.608 267.836 118.787 271.669 130.615 270.569C138.82 269.806 146.261 263.18 143.362 262.832C134.391 261.754 131.559 258.12 124.38 258.375C119.234 258.556 111.533 261.636 111.568 264.554V264.554Z" fill="#FF788F"/>
<path d="M143.82 223.441V244.993C143.82 251.075 157.908 256.008 175.29 256.008C192.672 256.008 206.761 251.075 206.761 244.993V223.441H143.816H143.82Z" fill="black"/>
<path d="M143.82 223.441V244.993C143.82 251.075 157.908 256.008 175.29 256.008C192.672 256.008 206.761 251.075 206.761 244.993V223.441H143.816H143.82Z" stroke="black" stroke-width="1.2" stroke-linecap="round" stroke-linejoin="round"/>
<path d="M175.294 236.997C204.847 236.997 228.806 213.039 228.806 183.485C228.806 153.932 204.847 129.973 175.294 129.973C145.74 129.973 121.782 153.932 121.782 183.485C121.782 213.039 145.74 236.997 175.294 236.997Z" fill="white"/>
<path d="M142.436 226.369C129.568 216.496 121.274 200.96 121.274 183.489C121.274 153.655 145.459 129.47 175.294 129.47C205.128 129.47 229.313 153.655 229.313 183.489C229.313 200.179 221.744 215.098 209.852 225.01" stroke="#FF788F" stroke-width="1.2" stroke-linecap="round" stroke-linejoin="round"/>
<path d="M175.294 146.429C154.828 146.429 138.238 163.02 138.238 183.485C138.238 203.951 154.828 220.542 175.294 220.542C195.76 220.542 212.35 203.951 212.35 183.485C212.35 163.02 195.76 146.429 175.294 146.429V146.429ZM175.294 212.77C159.122 212.77 146.009 199.661 146.009 183.485C146.009 167.31 159.119 154.201 175.294 154.201C191.469 154.201 204.578 167.31 204.578 183.485C204.578 199.661 191.469 212.77 175.294 212.77Z" fill="black"/>
<path d="M183.909 168.638L160.446 192.1C159.748 192.799 159.748 193.931 160.446 194.63L164.147 198.331C164.846 199.03 165.978 199.03 166.677 198.331L190.139 174.868C190.838 174.17 190.838 173.038 190.139 172.339L186.438 168.638C185.74 167.939 184.607 167.939 183.909 168.638Z" fill="#FF788F"/>
<path d="M164.147 168.64L160.446 172.341C159.748 173.04 159.748 174.172 160.446 174.871L183.909 198.333C184.607 199.032 185.74 199.032 186.438 198.333L190.139 194.632C190.838 193.934 190.838 192.801 190.139 192.103L166.677 168.64C165.978 167.942 164.846 167.942 164.147 168.64Z" fill="#FF788F"/>
<path d="M219.785 191.452C218.22 191.183 218.571 188.528 217.638 176.941C216.445 162.175 211.868 159.925 213.745 158.587C216.204 156.831 221.889 162.846 223.131 176.725C224.26 189.359 222.106 191.853 219.785 191.452V191.452Z" fill="#FF788F"/>
<path d="M133.667 171.48C132.187 169.514 129.909 168.552 129.054 169.532C123.415 175.994 124.302 194.227 133.152 209.32C142.809 225.787 163.171 231.663 163.207 227.593C163.218 226.213 149.321 221.709 140.058 205.601C129.788 187.737 135.519 173.939 133.667 171.476V171.48Z" fill="#FF788F"/>
<path d="M148.397 232.895V247.757C149.59 248.442 150.999 249.077 152.578 249.655V234.793C150.999 234.215 149.59 233.583 148.397 232.895Z" fill="#FF788F" stroke="#FF788F" stroke-width="1.2" stroke-linecap="round" stroke-linejoin="round"/>
<path d="M202.452 233.324V247.601C203.78 246.809 204.83 245.954 205.561 245.053V230.776C204.83 231.678 203.78 232.533 202.452 233.324Z" fill="#FF788F" stroke="#FF788F" stroke-width="1.2" stroke-linecap="round" stroke-linejoin="round"/>
<path d="M116.633 258.56C112.292 259.007 106.902 260.281 103.037 261.363C100.794 261.991 99.2507 264.042 99.2507 266.37V282.581" stroke="white" stroke-width="1.2" stroke-linecap="round" stroke-linejoin="round"/>
<path d="M151.503 264.642C151.946 266.601 148.351 267.105 147.141 271.946C146.109 276.08 147.319 289.115 147.936 297.561C147.961 297.88 148.131 299.935 148.302 301.951L153.43 300.978C153.621 290.339 152.876 267.879 151.506 264.642H151.503Z" fill="white" stroke="white" stroke-width="1.2" stroke-linecap="round" stroke-linejoin="round"/>
<path d="M221.541 278.894L220.516 281.392V284.427C221.119 284.522 222.063 284.579 222.954 284.118C226.886 282.095 227.106 283.813 230.136 282.695C231.666 282.131 239.406 280.715 241.283 280.25C244.686 279.405 249.012 275.448 252.259 274.724C253.484 274.451 254.293 275.42 255.67 276.098C258.182 277.336 249.034 262.155 256.053 261.509C255.861 261.175 255.67 260.842 255.478 260.511L254.311 258.18L226.399 259.252L221.541 278.894V278.894Z" fill="black"/>
<path d="M240.58 250.625V248.219C236.137 248.761 223.571 246.927 222.407 251.796C221.36 256.455 220.342 274.607 220.519 281.396C225.416 283.937 224.249 271.704 225.541 270.597C227.588 268.844 228.177 272.549 230.53 271.839C233.724 270.874 231.378 266.701 234.746 265.242C236.85 264.333 239.604 267.432 242.081 267.233C246.379 266.885 245.95 261.253 256.056 261.512C258.221 259.677 260.386 257.843 262.547 256.008L240.58 250.625V250.625Z" fill="#FF788F"/>
<path d="M245.336 259.688C243.483 259.993 237.461 260.348 233.962 259.255C232.489 258.798 231.258 258.201 230.271 257.623C229.565 254.606 228.862 251.59 228.156 248.573C225.228 248.946 222.876 249.819 222.404 251.796C221.676 255.029 220.963 264.749 220.654 272.666L221.311 272.35L222.311 259.145C223.124 256.54 225.502 260.068 234.313 261.275C238.568 261.857 247.894 260.586 245.329 259.688H245.336Z" fill="white"/>
<path d="M249.037 259.262C235.09 261.42 225.104 256.742 225.104 252.154C225.104 248.193 233.653 249.996 245.527 247.296C258.629 244.318 267.661 246.565 267.661 251.526C267.661 256.923 257.224 256.008 256.504 258.183C256.408 258.474 255.861 259.134 254.974 259.624C252.739 260.859 249.963 259.12 249.037 259.266V259.262Z" fill="#FF788F"/>
<path d="M267.661 251.526C267.661 246.81 259.495 244.553 247.429 246.898C231.421 249.198 233.763 254.404 244.452 254.01C244.651 254.003 246.603 253.79 246.276 253.786C244.864 253.758 244.129 253.588 243.881 253.389C243.316 252.938 243.061 252.339 246.383 251.593C249.914 250.802 250.428 253.524 250.669 254.89C250.999 256.771 259.421 254.393 257.895 255.575C256.795 256.427 255.428 258.311 255.616 259.408C255.797 258.865 256.72 258.045 257.884 257.626C261.373 256.37 267.664 255.575 267.664 251.526H267.661Z" fill="white"/>
<path d="M245.336 259.688C233.359 260.572 225.104 256.327 225.104 252.154C225.104 248.193 233.653 249.996 245.527 247.296C258.629 244.318 267.661 246.565 267.661 251.526C267.661 255.88 261.479 255.955 258.307 257.037C256.39 257.69 256.71 258.765 254.978 259.624C254.236 259.99 253.473 260.11 252.721 260.053" stroke="white" stroke-width="1.2" stroke-linecap="round" stroke-linejoin="round"/>
<path d="M240.58 248.219C236.137 248.761 223.571 246.927 222.407 251.796C221.36 256.455 220.32 278.759 220.498 285.548" stroke="white" stroke-width="1.2" stroke-linecap="round" stroke-linejoin="round"/>
<path d="M246.979 254.376C237.465 254.376 229.31 256.008 229.31 257.208" stroke="white" stroke-width="1.2" stroke-linecap="round" stroke-linejoin="round"/>
<path d="M242.216 253.687L241.18 251.888L243.508 247.721C232.695 249.808 225.104 248.428 225.104 252.157C225.104 253.95 226.634 255.752 229.32 257.161C229.537 255.969 237.596 254.379 246.979 254.379L242.216 253.69V253.687Z" fill="white"/>
<path d="M241.975 219.058C243.221 222.713 238.291 235.939 238.692 245.326C238.884 249.783 240.726 251.416 243.387 252.154C244.04 252.335 245.059 251.639 246.475 251.476C248.519 251.238 248.984 251.891 250.183 251.181C251.17 250.596 252.668 245.997 251.667 239.726C249.907 228.668 241.975 219.058 241.975 219.058V219.058Z" fill="white"/>
<path d="M251.844 246.87C252.075 244.861 252.089 242.387 251.663 239.726C249.903 228.668 241.971 219.058 241.971 219.058C243.217 222.713 238.288 235.939 238.689 245.326C238.778 247.427 239.413 249.07 240.343 250.28" stroke="#FF788F" stroke-width="1.2" stroke-linecap="round" stroke-linejoin="round"/>
<path d="M246.298 256.377C246.159 254.858 246.035 252.804 246.056 250.369C246.085 247.31 246.362 242.92 246.699 242.92C247.902 242.92 246.979 246.604 247.902 256.533" fill="black"/>
<path d="M109.45 233.31H116.632" stroke="black" stroke-width="1.2" stroke-linecap="round" stroke-linejoin="round"/>
<path d="M217.602 231.688H230.527" stroke="black" stroke-width="1.2" stroke-linecap="round" stroke-linejoin="round"/>
<path d="M186.962 266.881H202.995" stroke="black" stroke-width="1.2" stroke-linecap="round" stroke-linejoin="round"/>
<path d="M84.0867 248.219H107.938" stroke="black" stroke-width="1.2" stroke-linecap="round" stroke-linejoin="round"/>
<path d="M115.369 286.644C115.515 285.108 115.745 279.543 117.324 279.288C119.354 278.961 120.618 280.267 122.516 281.108C127.438 283.294 133.915 281.378 136.814 282.929C138.653 283.912 138.095 289.405 140.455 292.17C144.558 296.975 114.872 291.875 115.365 286.644H115.369Z" fill="black"/>
<path d="M126.363 266.974H130.331C130.231 265.48 129.667 263.691 129.497 262.225C129.007 257.992 129.568 253.566 128.01 254.283C127.751 254.4 126.25 257.527 126.328 259.092C126.551 263.62 126.438 265.696 126.363 266.977V266.974Z" fill="black"/>
<path d="M127.982 262.967C124.245 263.485 119.482 264.114 118.833 253.73C118.18 243.264 124.486 228.306 124.486 228.306C124.486 228.306 133.777 242.661 135.26 252.417C135.757 255.667 135.292 261.956 127.982 262.967Z" fill="white"/>
<path d="M127.701 257.988C129.77 257.669 130.327 255.88 130.32 253.716C130.302 246.97 126.324 243.133 126.324 243.133C126.562 244.982 123.379 250.217 123.677 254.202C123.904 257.25 125.387 258.343 127.701 257.985V257.988Z" fill="#FF788F"/>
<path d="M301.761 224.133C286.505 225.908 276.072 189.596 280.888 187.308C284.23 185.721 286.09 188.656 303.057 209.714" fill="#FF788F"/>
<path d="M285.529 238.36C265.922 239.531 260.922 198.571 267.37 196.218C270.848 194.952 273.066 200.821 287.587 226.369" fill="#FF788F"/>
<path d="M290.167 233.438C277.2 231.688 269.769 194.912 274.063 192.105C276.923 190.235 281.853 197.201 295.16 219.055" fill="#FF788F"/>
<path d="M273.279 231.167C267.661 223.441 267.2 205.19 262.547 206.229C258.321 207.177 256.057 229.591 268.722 241.586C278.882 249.248 303.362 243.754 313.88 230.698" fill="#FF788F"/>
<path d="M265.411 208.632C264.623 206.929 263.718 205.967 262.547 206.229C258.321 207.177 256.163 230.269 268.722 241.586C278.471 249.73 337.018 245.958 317.301 184.167" stroke="black" stroke-width="1.2" stroke-linecap="round" stroke-linejoin="round"/>
<path d="M275.316 234.489C266.614 222.252 264.716 199.427 270.358 197.177C269.226 196.368 268.548 195.789 267.37 196.219C262.238 198.089 264.357 224.403 275.316 234.489Z" fill="white"/>
<path d="M284.922 230.702C278.4 223.327 272.842 196.293 277.332 192.943C276.512 192.528 274.652 191.722 274.063 192.105C270.39 194.508 275.302 221.784 284.922 230.698V230.702Z" fill="white"/>
<path d="M283.648 187.205C283.098 187.19 281.388 187.073 280.891 187.311C276.661 189.32 285.81 219.967 298.088 228.307C286.445 213.987 280.451 192.943 283.652 187.205H283.648Z" fill="white"/>
<path d="M304.792 230.215C289.536 231.99 276.072 189.596 280.891 187.307C284.117 185.778 286.196 189.323 302.088 208.639C305.26 212.496 311.566 219.399 308.184 194.713" stroke="black" stroke-width="1.2" stroke-linecap="round" stroke-linejoin="round"/>
<path d="M285.529 238.36C265.922 239.531 260.922 198.571 267.37 196.218C269.052 195.604 270.443 196.665 273.073 200.818" stroke="black" stroke-width="1.2" stroke-linecap="round" stroke-linejoin="round"/>
<path d="M290.167 233.438C277.2 231.688 269.769 194.912 274.063 192.105C275.458 191.193 278.13 192.424 280.678 196.346" stroke="black" stroke-width="1.2" stroke-linecap="round" stroke-linejoin="round"/>
<path d="M306.105 197.123L326.62 173.386" stroke="#FF788F" stroke-width="1.2" stroke-linecap="round" stroke-linejoin="round"/>
<path d="M176.507 94.9544C178.186 95.0751 180.095 92.85 181.515 89.7023C181.025 90.2488 179.868 91.3595 178.218 91.5121C175.698 91.7393 172.976 89.6419 171.972 86.2351C172.504 91.466 174.555 94.816 176.507 94.958V94.9544Z" fill="white"/>
<path d="M171.837 83.0623C171.717 90.0853 174.183 94.7874 176.507 94.9542C178.495 95.0961 180.805 91.9661 182.239 87.8957" stroke="black" stroke-width="1.2" stroke-linecap="round" stroke-linejoin="round"/>
<path d="M213.173 65.9854C212.904 67.1955 208.492 88.5059 222.329 100.65C226.673 104.465 231.478 106.197 235.083 107.027C242.972 87.8955 226.133 72.5684 223.152 63.4125C221.917 58.6572 220.683 53.9018 219.451 49.1465L213.177 65.9854H213.173Z" fill="#FF788F"/>
<path d="M235.08 107.027C231.811 104.607 228.209 101.363 224.898 97.0477C215.831 85.241 214.064 72.075 213.908 64.0122L213.173 65.9818C212.904 67.1919 208.492 88.5023 222.329 100.646C226.673 104.461 231.478 106.193 235.083 107.023L235.08 107.027Z" fill="white"/>
<path d="M228.121 86.2312C218.684 80.4892 218.461 52.1487 219.447 49.1465" stroke="black" stroke-width="1.2" stroke-linecap="round" stroke-linejoin="round"/>
<path d="M213.173 65.9854C212.904 67.1955 208.492 88.5059 222.329 100.65C226.673 104.465 231.478 106.197 235.083 107.027C242.972 87.8955 226.133 72.5684 223.152 63.4125C221.917 58.6572 220.683 53.9018 219.451 49.1465L213.177 65.9854H213.173Z" stroke="black" stroke-width="1.2" stroke-linecap="round" stroke-linejoin="round"/>
<path d="M211.186 51.1942C196.278 56.347 159.15 61.3933 139.27 52.8018C137.648 51.8649 135.963 51.1942 135.469 47.759C135.242 46.1798 136.389 42.0774 136.208 40.4095C135.881 37.4072 134.454 35.8102 134.486 33.9365C134.533 31.0726 135.53 29.6602 138.074 28.3472C162.397 15.7952 210.597 23.9715 221.74 28.7198C218.22 36.2113 214.703 43.7027 211.182 51.1942H211.186Z" fill="#FF788F"/>
<path d="M142.471 42.9825C140.516 40.4238 137.815 30.7498 141.825 26.6475C140.523 27.1656 139.267 27.7298 138.074 28.3473C135.53 29.6604 134.533 31.0763 134.486 33.9366C134.454 35.8104 135.881 37.4109 136.208 40.4096C136.389 42.0775 135.242 46.1764 135.469 47.7591C135.963 51.1908 137.648 51.8615 139.27 52.8019C149.569 57.2521 164.488 58.0364 178.559 57.0498C183.101 56.3187 188.477 54.193 186.692 53.3129C178.807 49.4306 151.162 54.3385 142.475 42.9789L142.471 42.9825Z" fill="white"/>
<path d="M155.697 28.0312C155.165 30.3841 167.731 28.8262 179.556 30.0363C190.809 31.1861 201.916 33.216 201.924 32.1052C201.934 30.558 193.25 28.0135 182.806 26.8885C180.18 26.6082 177.444 25.1496 174.708 25.0999C166.993 24.958 155.956 26.8885 155.697 28.0312Z" fill="white"/>
<path d="M211.186 51.1942C196.278 56.347 159.15 61.3933 139.27 52.8018C137.648 51.8649 135.963 51.1942 135.469 47.759C135.242 46.1798 136.389 42.0774 136.208 40.4095C135.881 37.4072 134.454 35.8102 134.486 33.9365C134.533 31.0726 135.53 29.6602 138.074 28.3472C162.397 15.7952 210.597 23.9715 221.74 28.7198" stroke="black" stroke-width="1.2" stroke-linecap="round" stroke-linejoin="round"/>
<path d="M243.6 237.629C244.701 240.706 241.84 244.5 242.5 248.843C242.522 248.992 243.157 252.438 246.539 252.133C249.073 251.902 249.417 247.928 249.428 247.718C249.697 242.92 245.442 237.988 243.6 237.629Z" fill="#FF788F"/>
<path d="M228.121 47.8192V47.8121C232.67 46.6694 233.82 43.3584 233.032 41.2079C232.248 39.0644 229.707 38.1453 226.236 39.3164C228.422 29.2414 226.222 25.4478 224.075 25.1248C222.599 24.9013 219.678 26.1256 218.858 32.2224C216.935 26.4769 213.968 25.9198 212.293 26.6437C209.774 27.7367 209.05 34.6923 213.258 42.5458C206.047 37.3042 202.105 42.5458 202.108 46.4352C202.112 51.9074 207.903 55.1368 213.418 51.329C204.507 58.6323 206.058 67.0394 209.103 68.9273C211.544 70.4427 216.938 69.229 220.363 60.3783V60.3535C220.878 64.3885 222.414 66.6348 224.089 67.7846C225.764 68.9344 227.578 68.9841 228.642 68.6292C229.952 68.1927 231.048 66.319 231.212 63.7958C231.29 62.5715 231.148 61.191 230.701 59.7467C233.593 60.1157 234.587 58.4301 234.814 58.1142C236.418 55.8856 236.315 50.1579 228.121 47.8121V47.8192Z" fill="white"/>
<path d="M214.532 50.4597C204.376 57.9512 205.561 67.3767 208.727 69.3427" stroke="#FF788F" stroke-width="1.2" stroke-linecap="round" stroke-linejoin="round"/>
<path d="M220.172 38.3122C219.682 34.554 219.096 30.8349 217.9 28.6631" stroke="#FF788F" stroke-width="1.2" stroke-linecap="round" stroke-linejoin="round"/>
<path d="M227.578 47.9399C233.078 47.2941 234.36 43.0533 233.444 40.7004" stroke="#FF788F" stroke-width="1.2" stroke-linecap="round" stroke-linejoin="round"/>
<path d="M227.141 27.538C226.236 25.4123 224.774 25.2277 224.075 25.1248C222.599 24.9012 219.923 25.6323 219.156 31.5765" stroke="#FF788F" stroke-width="1.2" stroke-linecap="round" stroke-linejoin="round"/>
<path d="M225.491 41.8646C225.984 40.3528 226.481 38.8375 226.974 37.3257" stroke="#FF788F" stroke-width="1.2" stroke-linecap="round" stroke-linejoin="round"/>
<path d="M222.869 67.554C221.353 65.8222 220.14 61.9647 220.172 57.1206" stroke="#FF788F" stroke-width="1.2" stroke-linecap="round" stroke-linejoin="round"/>
<path d="M227.141 53.8914C230.576 57.3017 231.992 61.4077 231.808 64.2538" stroke="#FF788F" stroke-width="1.2" stroke-linecap="round" stroke-linejoin="round"/>
<path d="M214.202 43.0532C213.848 42.5564 212.244 40.4378 209.266 39.8487C205.693 39.1425 203.034 41.215 202.662 41.5166" stroke="#FF788F" stroke-width="1.2" stroke-linecap="round" stroke-linejoin="round"/>
<path d="M88.6112 103.042L78.5327 132.915" stroke="#FF788F" stroke-width="1.2" stroke-linecap="round" stroke-linejoin="round"/>
<path d="M260.922 136.688L242.17 152.987" stroke="#FF788F" stroke-width="1.2" stroke-linecap="round" stroke-linejoin="round"/>
<path d="M136.431 163.655C135.238 165.465 132.282 164.432 131.636 163.005C130.139 159.702 141.747 147.089 143.475 148.271C145.374 149.57 140.679 157.21 136.431 163.655V163.655Z" fill="#FF788F"/>
<path d="M215.945 207.195C215.288 205.754 218.035 199.529 219.746 199.792C221.272 200.026 219.483 207.393 217.602 207.982C217.173 208.117 216.168 207.691 215.945 207.195V207.195Z" fill="#FF788F"/>
<path d="M177.288 229.864C177.295 228.768 180.759 228.814 184.559 228.225C188.36 227.639 192.093 226.365 192.356 226.979C192.984 228.452 189.343 229.861 184.233 230.581C181.042 231.032 177.281 230.748 177.288 229.861V229.864Z" fill="#FF788F"/>
<path d="M222.102 55.1866C219.398 55.1866 217.205 51.7194 217.205 47.4431C217.205 43.1669 219.398 39.6997 222.102 39.6997C222.166 39.6997 222.226 39.7104 222.287 39.7139C221.595 39.2277 220.828 38.9509 220.023 38.9509C216.992 38.9509 214.536 42.7517 214.536 47.4431C214.536 52.1346 216.992 55.9354 220.023 55.9354C220.832 55.9354 221.598 55.6585 222.287 55.1724C222.226 55.1759 222.166 55.1866 222.102 55.1866Z" fill="#FF788F"/>
<path d="M216.537 117.233L217.85 122.39C218.5 124.948 220.402 127.003 222.9 127.851L225.871 128.859C226.453 129.058 226.453 129.881 225.871 130.076L222.9 131.084C220.402 131.932 218.503 133.987 217.85 136.546L216.537 141.702C216.374 142.348 215.455 142.348 215.292 141.702L213.979 136.546C213.329 133.987 211.427 131.932 208.929 131.084L205.958 130.076C205.376 129.877 205.376 129.054 205.958 128.859L208.929 127.851C211.427 127.003 213.326 124.948 213.979 122.39L215.292 117.233C215.455 116.587 216.374 116.587 216.537 117.233Z" fill="white"/>
<path d="M249.889 96.7745L250.808 100.387C251.262 102.179 252.597 103.62 254.346 104.213L256.429 104.919C256.837 105.057 256.837 105.636 256.429 105.774L254.346 106.48C252.597 107.077 251.262 108.514 250.808 110.306L249.889 113.919C249.775 114.373 249.129 114.373 249.016 113.919L248.097 110.306C247.643 108.514 246.308 107.073 244.559 106.48L242.476 105.774C242.067 105.636 242.067 105.057 242.476 104.919L244.559 104.213C246.308 103.617 247.643 102.179 248.097 100.387L249.016 96.7745C249.129 96.3203 249.775 96.3203 249.889 96.7745Z" fill="white"/>
</g>
<path d="M224.824 161.859C227.72 168.481 229.327 175.795 229.327 183.485C229.327 213.326 205.135 237.518 175.294 237.518C157.042 237.518 140.906 228.469 131.122 214.615" stroke="black" stroke-width="1.2" stroke-linecap="round" stroke-linejoin="round"/>
<path d="M93.207 263.957C116.338 283.638 146.101 295.758 178.676 296.496C180.407 296.531 181.823 295.115 181.823 293.387V284.802C216.974 284.802 248.739 270.306 271.465 246.962" stroke="white" stroke-width="2" stroke-linecap="round" stroke-linejoin="round"/>
</g>
<defs>
<clipPath id="clip0_6601_657">
<rect width="368" height="297.99" fill="white"/>
</clipPath>
</defs>
</svg>
